<?xml version="1.0" encoding="UTF-8"?>
<svg id="Layer_1" xmlns="http://www.w3.org/2000/svg" version="1.1" viewBox="0 0 398 398">
  <!-- Generator: Adobe Illustrator 29.8.1, SVG Export Plug-In . SVG Version: 2.1.1 Build 2)  -->
  <defs>
    <style>
      .st0 {
        fill: #fff;
        fill-rule: evenodd;
      }
    </style>
  </defs>
  <path class="st0" d="M0,199C0,89.2,89.2,0,199,0s199,89,199,199-89,199-199,199S0,308.9,0,199ZM233.8,120.4h-113.5l-17.3,27.6h113.5l17.3-27.6h0ZM292.8,230.8l17.3,27.5h-.1c0,.1,32.6.1,32.6.1l-86.2-138-68.9,110.4h-78.1l17.3-27.6h52.8l17.3-27.6h-110.6l-17.3,27.6h25.4l-34.5,55.1h143.2l53.6-85.9,19.2,30.8h-16l-17.3,27.6h50.3,0Z"/>
</svg>